<svg width="64" height="64" viewBox="0 0 64 64" fill="none" xmlns="http://www.w3.org/2000/svg">
<path d="M32.5881 11.0166C36.6484 10.8424 41.0123 12.0477 44.2863 14.0786C48.7979 16.9039 51.8019 21.1432 52.634 25.8591C53.6632 31.4842 51.7646 36.0576 47.934 40.5343C47.2374 39.9327 46.7552 39.5447 45.8647 39.1381C47.7371 37.1311 48.9057 35.3118 49.6829 32.7985C50.9323 28.6615 50.221 24.2722 47.7029 20.5779C45.1395 16.8576 41.399 14.703 36.5693 13.6247C35.1798 13.451 33.9122 13.2559 32.4991 13.3139C29.6466 13.4313 27.1073 13.9804 24.5599 15.0993C20.2503 17.0245 17.0053 20.3186 15.5283 24.2674C13.7356 29.09 14.7622 32.8676 17.3839 37.1879L16.8346 38.0171C16.2018 37.9779 15.5489 37.9729 14.9133 37.9601C14.5171 37.2762 14.0904 36.579 13.7466 35.877C7.93476 24.0124 17.8725 11.6253 32.5881 11.0166Z" fill="#007BFE"/>
<path d="M27.8895 27.4783C29.6509 26.7271 31.3879 26.3436 33.3418 26.2232C36.9658 25.9997 37.0998 26.4649 39.6168 28.2965C40.1609 27.7141 40.8735 27.0683 41.4648 26.5061C42.2226 26.6917 43.1267 26.6824 43.7165 27.1947C44.2829 27.6868 44.1962 28.8547 44.2097 29.5189C44.0009 29.5139 43.7886 29.4856 43.607 29.5455C43.0043 29.7273 40.1246 30.6954 39.7888 30.6763C37.0698 30.5215 33.029 29.3466 30.326 29.1473C30.5797 29.8859 30.8448 30.6215 31.1214 31.3541C33.3228 32.0796 36.419 32.8582 38.7683 33.1888C38.7349 36.7662 38.5472 40.5627 38.3609 44.1407C36.7669 43.5538 35.1846 42.9439 33.6148 42.3115C33.3976 41.1593 33.0026 36.7577 32.2392 35.9987C30.7079 34.4763 28.9569 34.2044 27.5402 32.1536C27.4701 30.8346 27.7268 28.8093 27.8895 27.4783Z" fill="#007BFE"/>
<path d="M31.3882 15.276C35.7507 15.0094 37.6574 16.7399 39.4975 19.7567C37.3646 19.7423 36.7162 19.7077 34.6892 20.1676C36.1183 20.1115 36.6998 20.0772 38.0913 20.2897C35.929 21.5469 33.9465 23.009 31.7495 24.2298C29.9868 25.2093 23.2095 28.9048 21.4141 28.5118C21.1843 28.4615 20.998 28.3472 20.8963 28.1627C20.7065 27.8186 20.6569 27.3775 20.8298 27.0217C21.8058 25.0124 29.6087 21.6902 32.0724 20.828L33.5524 20.3407C30.2954 20.5749 25.0673 22.5838 22.5027 24.348C21.6699 24.9209 21.5503 25.2436 21.0084 25.6513L20.8542 25.6292C20.2096 24.5737 23.4677 21.4468 24.3463 20.6908C26.5953 18.7556 29.3503 18.1644 32.4637 18.1881C28.4478 17.003 25.3437 18.8358 22.6314 21.1236C22.9976 20.2318 23.541 19.4002 24.2378 18.6652C25.9711 16.825 28.6248 15.5352 31.3882 15.276Z" fill="#007BFE"/>
<path d="M14.7998 39.2951C19.4363 38.6979 23.3252 42.7873 27.0971 44.7364C29.5632 46.1152 34.0049 47.7756 36.9855 47.2875C39.2132 46.9228 41.848 45.1468 42.9351 43.4836C43.8744 42.0464 43.9222 41.1367 43.4977 39.5803C46.3147 41.1168 45.7643 43.1557 44.5029 45.3979C43.9044 46.3343 43.0196 47.4266 42.0028 48.0417C39.4416 49.5915 36.3735 50.5846 33.311 51.1227C30.3342 50.2521 27.3953 48.8645 24.7586 47.4314C20.0645 44.8801 17.0101 41.1835 11 41.5581C12.0507 40.4662 13.1522 39.6339 14.7998 39.2951Z" fill="#007BFE"/>
<path d="M21.2173 30.2471C22.9475 29.5967 24.6511 28.8964 26.3254 28.1475C25.3639 34.5161 24.597 39.6614 30.5361 44.5448C30.5553 44.9589 30.6342 44.9137 30.3955 45.1695C25.5052 43.2273 22.8131 39.8954 17.8115 38.3166C19.4136 36.3539 20.6368 32.6313 21.2173 30.2471Z" fill="#007BFE"/>
<path d="M46.3139 41.4658C47.2778 41.8189 48.8092 43.8297 49.3446 44.5863C49.2035 44.8575 49.056 45.1263 48.9024 45.3925C47.0847 48.4816 41.8309 51.7657 38.1397 52.804C37.2441 52.6118 35.8556 52.1417 34.9766 51.8576C39.64 50.5766 42.3868 48.9483 45.1332 45.4022C46.0649 44.1992 46.6657 42.9219 46.3139 41.4658Z" fill="#007BFE"/>
<path d="M43.7874 30.9908L44.1924 30.9397C44.1739 31.9667 44.1728 32.9938 44.1892 34.0209C43.9527 34.3156 43.3577 35.0445 43.2228 35.3427C42.4874 36.9695 42.2002 39.4659 41.9351 41.2277C41.3917 41.8652 40.1499 42.8525 39.4453 43.4276C39.9805 40.3309 40.4288 36.1061 40.661 33.0262C41.639 32.6447 42.7455 32.2892 43.5168 31.6443C43.6993 31.4916 43.7447 31.1996 43.7874 30.9908Z" fill="#007BFE"/>
<path d="M40.638 20.4132C41.7431 20.3901 44.6283 21.5257 44.6632 22.5529C44.6962 23.5253 45.3038 25.0276 45.2786 25.7981L45.2762 25.8547C45.2609 26.3031 45.0085 26.7658 44.812 27.1879C44.5598 26.751 44.3564 26.5019 44.0387 26.103C42.556 24.3807 39.7975 22.6756 37.6943 21.5333C38.7281 21.0912 39.5411 20.7332 40.638 20.4132Z" fill="#007BFE"/>
<path d="M37.2671 22.06C38.1719 22.3882 40.644 24.5857 41.3731 25.2107C40.8651 25.7964 40.1044 26.4789 39.5172 27.004C38.6391 26.9156 36.0246 23.6338 35.4941 23.1622C36.1224 22.6683 36.498 22.3816 37.2671 22.06Z" fill="#0B2649"/>
<path d="M28.0898 34.3422C28.3999 34.4574 28.7646 34.9239 28.9884 35.0132C31.9697 36.2024 32.3712 38.8497 32.4282 41.4196C32.1278 41.2747 31.6143 40.765 31.3208 40.5403C29.0645 38.813 28.7681 36.7061 28.0898 34.3422Z" fill="#0B2649"/>
<path d="M38.2988 16.8556C39.711 17.1846 41.4099 18.8733 42.1605 19.9558C41.6259 19.8993 40.9517 19.6398 40.1565 19.5505C39.5714 18.4293 39.0949 17.8644 38.2988 16.8556Z" fill="#0368DB"/>
<path d="M34.1086 23.9301C34.5223 23.9522 35.5702 24.9306 35.9345 25.2316C35.2097 25.1614 34.328 25.2011 33.5841 25.2166C32.6207 25.24 32.2013 25.3377 31.249 25.5089C32.2536 25.0533 33.2103 24.5251 34.1086 23.9301Z" fill="#0B2649"/>
<path d="M30.5362 44.5448C31.4095 45.1397 32.3163 45.6982 33.2532 46.2184C32.675 46.0305 30.8081 45.4398 30.3955 45.1696C30.6342 44.9137 30.5553 44.9589 30.5362 44.5448Z" fill="#0368DB"/>
<path d="M44.2101 29.519C44.2227 30.0268 44.2201 30.4292 44.1927 30.9397L43.7878 30.9908C43.7819 30.6321 43.9001 29.8695 43.8275 29.6053L43.6074 29.5455C43.789 29.4856 44.0013 29.5139 44.2101 29.519Z" fill="#0368DB"/>
</svg>
