<svg width="32" height="32" viewBox="0 0 32 32" fill="none" xmlns="http://www.w3.org/2000/svg">
<rect width="32" height="32" rx="4" fill="#0D0D1A"/>
<rect x="1" y="1" width="30" height="30" rx="15" fill="#0D0D1A"/>
<path d="M16.2981 3.50991C18.3562 3.4062 20.5682 4.12363 22.2277 5.33252C24.5146 7.01421 26.0373 9.53759 26.459 12.3447C26.9807 15.693 26.0184 18.4152 24.0767 21.0799C23.7236 20.7218 23.4791 20.4909 23.0278 20.2489C23.9769 19.0542 24.5692 17.9713 24.9632 16.4753C25.5965 14.0128 25.2359 11.4001 23.9595 9.20112C22.6602 6.98667 20.7642 5.7042 18.3161 5.06235C17.6118 4.95893 16.9693 4.84277 16.253 4.87734C14.8071 4.94721 13.52 5.27407 12.2288 5.94004C10.0443 7.08603 8.39948 9.04677 7.65078 11.3973C6.74212 14.2679 7.26248 16.5165 8.59137 19.088L8.31294 19.5816C7.9922 19.5583 7.66124 19.5553 7.33906 19.5477C7.13825 19.1406 6.92197 18.7256 6.74768 18.3078C3.80177 11.2455 8.83904 3.87221 16.2981 3.50991Z" fill="#007BFE"/>
<path d="M13.9165 13.3085C14.8093 12.8614 15.6898 12.6331 16.6801 12.5614C18.5171 12.4284 18.585 12.7053 19.8608 13.7955C20.1366 13.4489 20.4979 13.0644 20.7976 12.7298C21.1816 12.8403 21.64 12.8347 21.9389 13.1397C22.226 13.4326 22.182 14.1278 22.1889 14.5232C22.0831 14.5201 21.9754 14.5033 21.8834 14.539C21.5779 14.6472 20.1182 15.2235 19.948 15.2121C18.5698 15.1199 16.5216 14.4206 15.1515 14.302C15.2801 14.7416 15.4145 15.1795 15.5546 15.6156C16.6705 16.0474 18.24 16.5108 19.4307 16.7076C19.4138 18.837 19.3187 21.0969 19.2242 23.2266C18.4163 22.8772 17.6142 22.5142 16.8185 22.1378C16.7084 21.4519 16.5082 18.832 16.1213 18.3802C15.3451 17.474 14.4575 17.3121 13.7394 16.0914C13.7039 15.3063 13.834 14.1008 13.9165 13.3085Z" fill="#007BFE"/>
<path d="M15.6899 6.04519C17.9012 5.8865 18.8676 6.91658 19.8003 8.71228C18.7192 8.70374 18.3905 8.68313 17.3631 8.95686C18.0875 8.92346 18.3822 8.9031 19.0875 9.02957C17.9915 9.77791 16.9866 10.6482 15.873 11.3749C14.9795 11.9579 11.5442 14.1576 10.6342 13.9237C10.5177 13.8937 10.4233 13.8257 10.3717 13.7159C10.2755 13.5111 10.2504 13.2485 10.338 13.0367C10.8327 11.8407 14.7879 9.86321 16.0367 9.34998L16.7868 9.05989C15.1359 9.19934 12.4859 10.3951 11.186 11.4452C10.7638 11.7862 10.7032 11.9783 10.4285 12.221L10.3504 12.2078C10.0236 11.5796 11.6751 9.71834 12.1204 9.26829C13.2604 8.11638 14.6569 7.76453 16.235 7.77859C14.1994 7.07322 12.626 8.16414 11.2512 9.5259C11.4368 8.99509 11.7122 8.50012 12.0655 8.06257C12.944 6.96721 14.2891 6.19949 15.6899 6.04519Z" fill="#007BFE"/>
<path d="M7.28151 20.3423C9.63167 19.9868 11.6029 22.421 13.5148 23.5812C14.7648 24.4019 17.0162 25.3902 18.5271 25.0997C19.6562 24.8826 20.9918 23.8255 21.5428 22.8355C22.0189 21.98 22.0431 21.4385 21.828 20.5121C23.2559 21.4267 22.9769 22.6403 22.3375 23.975C22.0341 24.5323 21.5856 25.1825 21.0702 25.5486C19.772 26.4711 18.2169 27.0623 16.6645 27.3825C15.1556 26.8644 13.6659 26.0384 12.3295 25.1854C9.95012 23.6667 8.40189 21.4664 5.35547 21.6894C5.88804 21.0394 6.44638 20.544 7.28151 20.3423Z" fill="#007BFE"/>
<path d="M10.5349 14.9567C11.4119 14.5695 12.2755 14.1526 13.1241 13.7068C12.6367 17.4977 12.248 20.5604 15.2585 23.4672C15.2682 23.7136 15.3082 23.6867 15.1872 23.839C12.7084 22.683 11.3438 20.6997 8.80859 19.7599C9.62068 18.5916 10.2407 16.3758 10.5349 14.9567Z" fill="#007BFE"/>
<path d="M23.2555 21.6344C23.7441 21.8446 24.5203 23.0415 24.7917 23.4918C24.7202 23.6532 24.6454 23.8133 24.5675 23.9717C23.6462 25.8105 20.9832 27.7653 19.1121 28.3833C18.6582 28.2689 17.9543 27.9891 17.5088 27.82C19.8726 27.0575 21.2649 26.0883 22.657 23.9775C23.1292 23.2614 23.4338 22.5011 23.2555 21.6344Z" fill="#007BFE"/>
<path d="M21.9744 15.3993L22.1796 15.3689C22.1703 15.9802 22.1697 16.5916 22.178 17.2029C22.0582 17.3784 21.7565 17.8123 21.6882 17.9897C21.3154 18.9581 21.1698 20.444 21.0354 21.4927C20.76 21.8722 20.1306 22.4599 19.7734 22.8022C20.0447 20.9589 20.272 18.4441 20.3896 16.6109C20.8854 16.3838 21.4462 16.1722 21.8372 15.7883C21.9297 15.6974 21.9527 15.5236 21.9744 15.3993Z" fill="#007BFE"/>
<path d="M20.3778 9.10305C20.938 9.08933 22.4004 9.76526 22.4181 10.3767C22.4349 10.9555 22.7428 11.8497 22.7301 12.3084L22.7289 12.3421C22.7211 12.609 22.5932 12.8844 22.4936 13.1356C22.3657 12.8756 22.2626 12.7273 22.1016 12.4899C21.35 11.4647 19.9518 10.4497 18.8857 9.7698C19.4097 9.50666 19.8218 9.29353 20.3778 9.10305Z" fill="#007BFE"/>
<path d="M18.6692 10.0833C19.1278 10.2787 20.3809 11.5867 20.7504 11.9587C20.493 12.3074 20.1074 12.7136 19.8097 13.0262C19.3646 12.9735 18.0394 11.0201 17.7705 10.7394C18.089 10.4454 18.2793 10.2748 18.6692 10.0833Z" fill="#0B2649"/>
<path d="M14.0186 17.3942C14.1757 17.4627 14.3606 17.7404 14.474 17.7935C15.9852 18.5014 16.1887 20.0772 16.2176 21.6069C16.0653 21.5206 15.805 21.2173 15.6563 21.0835C14.5126 20.0553 14.3624 18.8012 14.0186 17.3942Z" fill="#0B2649"/>
<path d="M19.1924 6.98547C19.9082 7.18132 20.7693 8.18645 21.1498 8.83083C20.8788 8.79719 20.5371 8.64275 20.134 8.58958C19.8374 7.92219 19.5959 7.58591 19.1924 6.98547Z" fill="#0368DB"/>
<path d="M17.0686 11.1965C17.2783 11.2097 17.8095 11.792 17.9941 11.9712C17.6268 11.9294 17.1798 11.953 16.8027 11.9622C16.3144 11.9762 16.1019 12.0343 15.6191 12.1362C16.1283 11.8651 16.6133 11.5507 17.0686 11.1965Z" fill="#0B2649"/>
<path d="M15.2578 23.4671C15.7005 23.8212 16.1602 24.1537 16.6351 24.4633C16.3419 24.3515 15.3957 23.9998 15.1865 23.839C15.3075 23.6867 15.2675 23.7136 15.2578 23.4671Z" fill="#0368DB"/>
<path d="M22.1893 14.5232C22.1957 14.8255 22.1943 15.065 22.1805 15.3689L21.9752 15.3993C21.9722 15.1858 22.0321 14.7318 21.9954 14.5746L21.8838 14.539C21.9758 14.5034 22.0834 14.5202 22.1893 14.5232Z" fill="#0368DB"/>
</svg>
