<svg width="400" height="80" viewBox="0 0 400 80" fill="none" xmlns="http://www.w3.org/2000/svg">
<path d="M42.6153 18.0174C46.869 17.8349 51.4407 19.0976 54.8706 21.2252C59.5971 24.185 62.7441 28.6262 63.6158 33.5667C64.694 39.4596 62.7051 44.2508 58.692 48.9407C57.9622 48.3104 57.457 47.904 56.5242 47.478C58.4857 45.3755 59.71 43.4695 60.5242 40.8365C61.8331 36.5025 61.088 31.9042 58.4499 28.034C55.7645 24.1365 51.8458 21.8794 46.7861 20.7497C45.3305 20.5677 44.0025 20.3633 42.5222 20.4241C39.5338 20.5471 36.8735 21.1224 34.2049 22.2945C29.69 24.3114 26.2905 27.7623 24.7431 31.8992C22.8651 36.9514 23.9406 40.909 26.6871 45.4349L26.1117 46.3036C25.4488 46.2626 24.7648 46.2573 24.0989 46.2439C23.6839 45.5275 23.2368 44.797 22.8766 44.0617C16.7881 31.632 27.199 18.6551 42.6153 18.0174Z" fill="#007BFE"/>
<path d="M37.6938 35.263C39.5391 34.476 41.3588 34.0742 43.4057 33.948C47.2023 33.714 47.3427 34.2013 49.9796 36.1201C50.5496 35.51 51.2961 34.8334 51.9156 34.2445C52.7094 34.4389 53.6566 34.4291 54.2744 34.9659C54.8678 35.4813 54.777 36.7049 54.7911 37.4008C54.5724 37.3954 54.35 37.3659 54.1598 37.4286C53.5283 37.619 50.5115 38.6333 50.1597 38.6133C47.3112 38.4511 43.078 37.2202 40.2463 37.0115C40.5121 37.7852 40.7898 38.5558 41.0796 39.3234C43.3858 40.0834 46.6295 40.899 49.0906 41.2453C49.0557 44.9931 48.859 48.9704 48.6638 52.7188C46.9939 52.1039 45.3363 51.465 43.6917 50.8025C43.4641 49.5954 43.0504 44.9842 42.2506 44.1891C40.6464 42.5941 38.8121 42.3093 37.3279 40.1609C37.2544 38.779 37.5233 36.6573 37.6938 35.263Z" fill="#007BFE"/>
<path d="M41.359 22.4796C45.9292 22.2003 47.9267 24.0132 49.8544 27.1737C47.62 27.1586 46.9406 27.1223 44.8171 27.6041C46.3143 27.5453 46.9234 27.5095 48.3812 27.7321C46.116 29.0492 44.039 30.5809 41.7374 31.8598C39.8908 32.8859 32.7908 36.7574 30.9099 36.3457C30.6692 36.293 30.474 36.1733 30.3674 35.98C30.1686 35.6195 30.1166 35.1574 30.2978 34.7846C31.3202 32.6797 39.4947 29.1993 42.0757 28.296L43.6262 27.7854C40.214 28.0309 34.7371 30.1354 32.0503 31.9837C31.1779 32.5838 31.0526 32.9218 30.4849 33.3489L30.3233 33.3258C29.648 32.2201 33.0612 28.9443 33.9817 28.1522C36.3378 26.1249 39.2239 25.5056 42.4857 25.5304C38.2785 24.2889 35.0266 26.2089 32.1852 28.6056C32.5687 27.6714 33.138 26.8003 33.8681 26.0302C35.6839 24.1023 38.4639 22.7511 41.359 22.4796Z" fill="#007BFE"/>
<path d="M23.9807 47.6424C28.838 47.0168 32.9121 51.3009 36.8637 53.3428C39.4471 54.7873 44.1004 56.5268 47.2229 56.0155C49.5567 55.6334 52.3169 53.7728 53.4558 52.0304C54.4398 50.5248 54.4899 49.5717 54.0452 47.9412C56.9964 49.5509 56.4197 51.6869 55.0982 54.0359C54.4712 55.0169 53.5443 56.1611 52.4791 56.8056C49.7959 58.4291 46.5818 59.4696 43.3734 60.0332C40.2549 59.1213 37.176 57.6675 34.4138 56.1662C29.4962 53.4934 26.2963 49.6208 20 50.0133C21.1007 48.8693 22.2547 47.9974 23.9807 47.6424Z" fill="#007BFE"/>
<path d="M30.7047 38.1636C32.5173 37.4822 34.302 36.7486 36.0561 35.964C35.0487 42.6359 34.2453 48.0262 40.4673 53.1421C40.4873 53.5759 40.57 53.5286 40.3199 53.7966C35.1967 51.762 32.3765 48.2714 27.1367 46.6174C28.8151 44.5612 30.0966 40.6613 30.7047 38.1636Z" fill="#007BFE"/>
<path d="M56.9953 49.9166C58.0052 50.2864 59.6095 52.393 60.1704 53.1856C60.0226 53.4697 59.8681 53.7514 59.7071 54.0302C57.8029 57.2665 52.2989 60.7069 48.4319 61.7947C47.4937 61.5933 46.039 61.1008 45.1182 60.8032C50.0037 59.4612 52.8812 57.7554 55.7585 54.0404C56.7345 52.7801 57.3639 51.442 56.9953 49.9166Z" fill="#007BFE"/>
<path d="M54.3487 38.9428L54.7729 38.8892C54.7535 39.9652 54.7524 41.0412 54.7696 42.1171C54.5218 42.4259 53.8985 43.1895 53.7572 43.5019C52.9868 45.2061 52.6858 47.8215 52.4081 49.6672C51.8388 50.335 50.5379 51.3693 49.7998 51.9718C50.3605 48.7276 50.8302 44.3016 51.0734 41.0751C52.098 40.6754 53.2571 40.303 54.0652 39.6273C54.2563 39.4674 54.304 39.1615 54.3487 38.9428Z" fill="#007BFE"/>
<path d="M51.0487 27.8614C52.2064 27.8372 55.229 29.0269 55.2655 30.1031C55.3001 31.1217 55.9366 32.6955 55.9103 33.5028L55.9078 33.562C55.8917 34.0318 55.6273 34.5166 55.4214 34.9587C55.1572 34.501 54.9442 34.2401 54.6114 33.8222C53.058 32.0178 50.1682 30.2315 47.9648 29.0349C49.0478 28.5717 49.8995 28.1966 51.0487 27.8614Z" fill="#007BFE"/>
<path d="M47.5175 29.5867C48.4655 29.9305 51.0552 32.2326 51.819 32.8874C51.2869 33.501 50.49 34.216 49.8748 34.7661C48.9549 34.6735 46.2159 31.2354 45.6602 30.7413C46.3183 30.224 46.7118 29.9236 47.5175 29.5867Z" fill="#0B2649"/>
<path d="M37.9033 42.4537C38.2282 42.5744 38.6102 43.0631 38.8447 43.1566C41.968 44.4025 42.3886 47.1758 42.4482 49.8682C42.1336 49.7163 41.5956 49.1824 41.2881 48.947C38.9244 47.1374 38.6139 44.9302 37.9033 42.4537Z" fill="#0B2649"/>
<path d="M48.5986 24.1345C50.0781 24.4792 51.8579 26.2482 52.6442 27.3823C52.0841 27.3231 51.3778 27.0513 50.5447 26.9577C49.9318 25.7831 49.4326 25.1912 48.5986 24.1345Z" fill="#0368DB"/>
<path d="M44.2086 31.5458C44.6421 31.569 45.7398 32.594 46.1215 32.9093C45.3622 32.8358 44.4385 32.8774 43.6591 32.8936C42.6499 32.9181 42.2106 33.0204 41.2129 33.1998C42.2653 32.7226 43.2676 32.1692 44.2086 31.5458Z" fill="#0B2649"/>
<path d="M40.4667 53.1422C41.3816 53.7654 42.3316 54.3505 43.3132 54.8954C42.7073 54.6986 40.7516 54.0797 40.3193 53.7967C40.5694 53.5286 40.4868 53.576 40.4667 53.1422Z" fill="#0368DB"/>
<path d="M54.7915 37.4008C54.8047 37.9328 54.802 38.3543 54.7733 38.8892L54.3491 38.9427C54.3429 38.5669 54.4667 37.768 54.3908 37.4913L54.1602 37.4286C54.3504 37.3659 54.5728 37.3954 54.7915 37.4008Z" fill="#0368DB"/>
<path d="M84.15 51.36C82.57 51.36 81.1 51.08 79.74 50.52C78.38 49.96 77.19 49.18 76.17 48.18C75.17 47.18 74.38 46.02 73.8 44.7C73.24 43.36 72.96 41.92 72.96 40.38C72.96 38.82 73.24 37.38 73.8 36.06C74.36 34.74 75.14 33.59 76.14 32.61C77.16 31.61 78.34 30.84 79.68 30.3C81.04 29.74 82.51 29.46 84.09 29.46C85.69 29.46 87.16 29.74 88.5 30.3C89.86 30.84 91.04 31.61 92.04 32.61C93.06 33.59 93.85 34.75 94.41 36.09C94.97 37.41 95.25 38.85 95.25 40.41C95.25 41.95 94.97 43.39 94.41 44.73C93.85 46.05 93.06 47.21 92.04 48.21C91.04 49.19 89.87 49.96 88.53 50.52C87.19 51.08 85.73 51.36 84.15 51.36ZM93.6 52.68L83.7 42.78L86.43 40.05L96.33 49.95L93.6 52.68ZM84.09 47.07C85.37 47.07 86.48 46.79 87.42 46.23C88.36 45.67 89.09 44.89 89.61 43.89C90.15 42.87 90.42 41.7 90.42 40.38C90.42 39.38 90.27 38.48 89.97 37.68C89.67 36.86 89.24 36.16 88.68 35.58C88.12 34.98 87.45 34.53 86.67 34.23C85.91 33.91 85.05 33.75 84.09 33.75C82.83 33.75 81.73 34.03 80.79 34.59C79.85 35.13 79.11 35.9 78.57 36.9C78.05 37.88 77.79 39.04 77.79 40.38C77.79 41.38 77.94 42.29 78.24 43.11C78.54 43.93 78.97 44.64 79.53 45.24C80.09 45.82 80.75 46.27 81.51 46.59C82.29 46.91 83.15 47.07 84.09 47.07ZM104.68 51.33C103.34 51.33 102.15 51.06 101.11 50.52C100.09 49.96 99.2901 49.2 98.7101 48.24C98.1301 47.26 97.8401 46.14 97.8401 44.88V36.42H102.43V44.82C102.43 45.32 102.51 45.75 102.67 46.11C102.85 46.47 103.11 46.75 103.45 46.95C103.79 47.15 104.2 47.25 104.68 47.25C105.36 47.25 105.9 47.04 106.3 46.62C106.7 46.18 106.9 45.58 106.9 44.82V36.42H111.49V44.85C111.49 46.13 111.2 47.26 110.62 48.24C110.04 49.2 109.24 49.96 108.22 50.52C107.2 51.06 106.02 51.33 104.68 51.33ZM120.462 51.3C119.122 51.3 117.922 50.97 116.862 50.31C115.822 49.65 114.992 48.75 114.372 47.61C113.772 46.47 113.472 45.17 113.472 43.71C113.472 42.25 113.772 40.95 114.372 39.81C114.992 38.67 115.822 37.77 116.862 37.11C117.922 36.45 119.122 36.12 120.462 36.12C121.442 36.12 122.322 36.31 123.102 36.69C123.902 37.07 124.552 37.6 125.052 38.28C125.552 38.94 125.832 39.7 125.892 40.56V46.86C125.832 47.72 125.552 48.49 125.052 49.17C124.572 49.83 123.932 50.35 123.132 50.73C122.332 51.11 121.442 51.3 120.462 51.3ZM121.392 47.16C122.372 47.16 123.162 46.84 123.762 46.2C124.362 45.54 124.662 44.71 124.662 43.71C124.662 43.03 124.522 42.43 124.242 41.91C123.982 41.39 123.602 40.99 123.102 40.71C122.622 40.41 122.062 40.26 121.422 40.26C120.782 40.26 120.212 40.41 119.712 40.71C119.232 40.99 118.842 41.39 118.542 41.91C118.262 42.43 118.122 43.03 118.122 43.71C118.122 44.37 118.262 44.96 118.542 45.48C118.822 46 119.212 46.41 119.712 46.71C120.212 47.01 120.772 47.16 121.392 47.16ZM124.482 51V47.07L125.172 43.53L124.482 39.99V36.42H128.982V51H124.482ZM132.214 51V29.22H136.804V51H132.214ZM140.036 51V36.42H144.626V51H140.036ZM142.346 34.41C141.626 34.41 141.026 34.17 140.546 33.69C140.086 33.19 139.856 32.59 139.856 31.89C139.856 31.17 140.086 30.57 140.546 30.09C141.026 29.61 141.626 29.37 142.346 29.37C143.066 29.37 143.656 29.61 144.116 30.09C144.576 30.57 144.806 31.17 144.806 31.89C144.806 32.59 144.576 33.19 144.116 33.69C143.656 34.17 143.066 34.41 142.346 34.41ZM149.928 51V30.39H154.518V51H149.928ZM146.628 40.32V36.42H157.818V40.32H146.628ZM164.341 51.06L158.341 36.42H163.291L167.101 48.03H165.271L169.171 36.42H174.121L167.881 51.06H164.341ZM160.591 57.15L164.971 47.7L167.881 51.06L165.301 57.15H160.591Z" fill="white"/>
<path d="M177.04 51V29.82H181.75V51H177.04ZM190.15 51V29.82H194.89V51H190.15ZM179.86 42.15V38.07H191.71V42.15H179.86ZM205.734 51.33C204.154 51.33 202.744 51.01 201.504 50.37C200.284 49.71 199.324 48.8 198.624 47.64C197.924 46.48 197.574 45.17 197.574 43.71C197.574 42.25 197.914 40.95 198.594 39.81C199.294 38.65 200.234 37.74 201.414 37.08C202.594 36.42 203.924 36.09 205.404 36.09C206.844 36.09 208.114 36.4 209.214 37.02C210.314 37.64 211.174 38.5 211.794 39.6C212.434 40.7 212.754 41.96 212.754 43.38C212.754 43.64 212.734 43.92 212.694 44.22C212.674 44.5 212.624 44.83 212.544 45.21L199.974 45.24V42.09L210.594 42.06L208.614 43.38C208.594 42.54 208.464 41.85 208.224 41.31C207.984 40.75 207.624 40.33 207.144 40.05C206.684 39.75 206.114 39.6 205.434 39.6C204.714 39.6 204.084 39.77 203.544 40.11C203.024 40.43 202.614 40.89 202.314 41.49C202.034 42.09 201.894 42.82 201.894 43.68C201.894 44.54 202.044 45.28 202.344 45.9C202.664 46.5 203.104 46.97 203.664 47.31C204.244 47.63 204.924 47.79 205.704 47.79C206.424 47.79 207.074 47.67 207.654 47.43C208.234 47.17 208.744 46.79 209.184 46.29L211.704 48.81C210.984 49.65 210.114 50.28 209.094 50.7C208.074 51.12 206.954 51.33 205.734 51.33ZM214.97 51V36.42H219.56V51H214.97ZM219.56 42.99L217.64 41.49C218.02 39.79 218.66 38.47 219.56 37.53C220.46 36.59 221.71 36.12 223.31 36.12C224.01 36.12 224.62 36.23 225.14 36.45C225.68 36.65 226.15 36.97 226.55 37.41L223.82 40.86C223.62 40.64 223.37 40.47 223.07 40.35C222.77 40.23 222.43 40.17 222.05 40.17C221.29 40.17 220.68 40.41 220.22 40.89C219.78 41.35 219.56 42.05 219.56 42.99ZM234.382 51.33C232.882 51.33 231.522 51 230.302 50.34C229.102 49.66 228.152 48.74 227.452 47.58C226.752 46.42 226.402 45.12 226.402 43.68C226.402 42.24 226.752 40.95 227.452 39.81C228.152 38.67 229.102 37.77 230.302 37.11C231.502 36.43 232.862 36.09 234.382 36.09C235.902 36.09 237.262 36.42 238.462 37.08C239.662 37.74 240.612 38.65 241.312 39.81C242.012 40.95 242.362 42.24 242.362 43.68C242.362 45.12 242.012 46.42 241.312 47.58C240.612 48.74 239.662 49.66 238.462 50.34C237.262 51 235.902 51.33 234.382 51.33ZM234.382 47.16C235.042 47.16 235.622 47.02 236.122 46.74C236.622 46.44 237.002 46.03 237.262 45.51C237.542 44.97 237.682 44.36 237.682 43.68C237.682 43 237.542 42.41 237.262 41.91C236.982 41.39 236.592 40.99 236.092 40.71C235.612 40.41 235.042 40.26 234.382 40.26C233.742 40.26 233.172 40.41 232.672 40.71C232.172 40.99 231.782 41.39 231.502 41.91C231.222 42.43 231.082 43.03 231.082 43.71C231.082 44.37 231.222 44.97 231.502 45.51C231.782 46.03 232.172 46.44 232.672 46.74C233.172 47.02 233.742 47.16 234.382 47.16Z" fill="#1A6EFF"/>
</svg>
