<svg width="320" height="64" viewBox="0 0 320 64" fill="none" xmlns="http://www.w3.org/2000/svg">
<rect x="0.5" y="0.5" width="319" height="63" rx="7.5" fill="#0D0D1A"/>
<rect x="0.5" y="0.5" width="319" height="63" rx="7.5" stroke="#4B4B6E"/>
<rect x="16" y="11" width="42" height="42" rx="21" fill="#0D0D1A"/>
<path d="M37.4051 15.0135C40.2041 14.8724 43.2124 15.8481 45.4694 17.4922C48.5795 19.7793 50.6503 23.2111 51.2239 27.0288C51.9334 31.5824 50.6246 35.2847 47.9839 38.9087C47.5037 38.4217 47.1713 38.1076 46.5574 37.7785C47.8482 36.1538 48.6538 34.681 49.1896 32.6464C50.0509 29.2974 49.5605 25.7441 47.8246 22.7535C46.0575 19.7419 43.479 17.9977 40.1496 17.1248C39.1917 16.9841 38.3179 16.8262 37.3438 16.8732C35.3773 16.9682 33.6268 17.4127 31.8708 18.3184C28.8999 19.877 26.6629 22.5436 25.6447 25.7403C24.4089 29.6443 25.1166 32.7024 26.9239 36.1997L26.5453 36.871C26.109 36.8393 25.6589 36.8352 25.2208 36.8248C24.9477 36.2712 24.6535 35.7068 24.4165 35.1386C20.4101 25.5338 27.2607 15.5062 37.4051 15.0135Z" fill="#007BFE"/>
<path d="M34.1669 28.3396C35.3812 27.7315 36.5786 27.421 37.9255 27.3235C40.4238 27.1426 40.5162 27.5192 42.2513 29.002C42.6264 28.5305 43.1176 28.0077 43.5252 27.5526C44.0476 27.7029 44.6709 27.6953 45.0774 28.1101C45.4679 28.5084 45.4081 29.4539 45.4174 29.9915C45.2735 29.9874 45.1272 29.9646 45.002 30.0131C44.5865 30.1602 42.6013 30.9439 42.3698 30.9285C40.4955 30.8032 37.7099 29.852 35.8466 29.6907C36.0215 30.2886 36.2042 30.8841 36.3949 31.4772C37.9125 32.0645 40.0469 32.6947 41.6663 32.9624C41.6434 35.8583 41.5139 38.9318 41.3855 41.8282C40.2867 41.3531 39.1959 40.8594 38.1137 40.3474C37.964 39.4147 37.6917 35.8515 37.1654 35.237C36.1099 34.0046 34.9028 33.7845 33.9261 32.1244C33.8778 31.0566 34.0548 29.4171 34.1669 28.3396Z" fill="#007BFE"/>
<path d="M36.5783 18.4615C39.5856 18.2457 40.9 19.6466 42.1685 22.0887C40.6982 22.0771 40.2512 22.0491 38.8538 22.4214C39.8391 22.3759 40.2399 22.3482 41.1991 22.5202C39.7086 23.538 38.3419 24.7216 36.8273 25.7099C35.6122 26.5027 30.9402 29.4943 29.7025 29.1762C29.5442 29.1355 29.4157 29.043 29.3456 28.8936C29.2148 28.6151 29.1806 28.258 29.2998 27.9699C29.9725 26.3434 35.3516 23.654 37.0499 22.956L38.0702 22.5615C35.8249 22.7511 32.2209 24.3773 30.453 25.8055C29.8789 26.2693 29.7964 26.5305 29.4229 26.8605L29.3166 26.8427C28.8722 25.9882 31.1182 23.457 31.7239 22.8449C33.2743 21.2783 35.1734 20.7998 37.3197 20.8189C34.5513 19.8596 32.4114 21.3432 30.5417 23.1952C30.7941 22.4733 31.1687 21.8002 31.6491 21.2051C32.844 19.7154 34.6733 18.6713 36.5783 18.4615Z" fill="#007BFE"/>
<path d="M25.1429 37.9055C28.3391 37.4221 31.02 40.7326 33.6202 42.3104C35.3202 43.4266 38.3821 44.7707 40.4368 44.3756C41.9725 44.0804 43.7888 42.6427 44.5382 41.2962C45.1857 40.1328 45.2187 39.3963 44.926 38.1364C46.868 39.3803 46.4886 41.0308 45.619 42.846C45.2064 43.604 44.5964 44.4882 43.8955 44.9862C42.1299 46.2407 40.0149 47.0447 37.9038 47.4802C35.8517 46.7755 33.8257 45.6522 32.0081 44.4921C28.7722 42.4267 26.6666 39.4343 22.5234 39.7375C23.2477 38.8536 24.0071 38.1799 25.1429 37.9055Z" fill="#007BFE"/>
<path d="M29.5676 30.581C30.7603 30.0545 31.9347 29.4876 33.0889 28.8813C32.426 34.0369 31.8973 38.2021 35.9916 42.1553C36.0048 42.4905 36.0592 42.4539 35.8946 42.661C32.5234 41.0888 30.6676 38.3915 27.2197 37.1135C28.3242 35.5246 29.1674 32.5111 29.5676 30.581Z" fill="#007BFE"/>
<path d="M46.8672 39.6628C47.5318 39.9486 48.5874 41.5764 48.9565 42.1889C48.8592 42.4084 48.7576 42.626 48.6516 42.8415C47.3986 45.3422 43.7769 48.0008 41.2323 48.8413C40.6149 48.6857 39.6577 48.3052 39.0518 48.0752C42.2666 47.0382 44.1601 45.72 46.0534 42.8494C46.6956 41.8755 47.1098 40.8415 46.8672 39.6628Z" fill="#007BFE"/>
<path d="M45.1261 31.183L45.4052 31.1417C45.3925 31.9731 45.3918 32.8045 45.4031 33.6359C45.24 33.8745 44.8298 34.4646 44.7369 34.706C44.2299 36.0229 44.0319 38.0439 43.8491 39.4701C43.4746 39.9861 42.6185 40.7854 42.1328 41.251C42.5018 38.7441 42.8108 35.324 42.9709 32.8308C43.6451 32.5219 44.4078 32.2341 44.9395 31.712C45.0653 31.5884 45.0967 31.352 45.1261 31.183Z" fill="#007BFE"/>
<path d="M42.954 22.6202C43.7159 22.6015 45.7048 23.5208 45.7288 24.3524C45.7516 25.1395 46.1704 26.3556 46.1531 26.9794L46.1514 27.0252C46.1409 27.3882 45.9669 27.7628 45.8314 28.1044C45.6576 27.7508 45.5174 27.5492 45.2984 27.2262C44.2763 25.832 42.3747 24.4516 40.9248 23.5269C41.6374 23.1691 42.1979 22.8792 42.954 22.6202Z" fill="#007BFE"/>
<path d="M40.6304 23.9533C41.2542 24.219 42.9583 25.9979 43.4609 26.5038C43.1108 26.978 42.5863 27.5305 42.1815 27.9556C41.5762 27.884 39.7739 25.2273 39.4082 24.8455C39.8413 24.4458 40.1002 24.2137 40.6304 23.9533Z" fill="#0B2649"/>
<path d="M34.3047 33.8961C34.5184 33.9893 34.7699 34.3669 34.9241 34.4392C36.9793 35.4019 37.2561 37.5449 37.2954 39.6254C37.0883 39.508 36.7343 39.0955 36.532 38.9136C34.9766 37.5153 34.7723 35.8097 34.3047 33.8961Z" fill="#0B2649"/>
<path d="M41.3418 19.7402C42.3153 20.0066 43.4865 21.3736 44.0039 22.2499C43.6353 22.2042 43.1706 21.9941 42.6224 21.9218C42.219 21.0142 41.8906 20.5568 41.3418 19.7402Z" fill="#0368DB"/>
<path d="M38.4537 25.4672C38.7389 25.4852 39.4613 26.2772 39.7124 26.5208C39.2128 26.464 38.605 26.4961 38.0921 26.5087C37.428 26.5276 37.1389 26.6067 36.4824 26.7453C37.1749 26.3765 37.8345 25.9489 38.4537 25.4672Z" fill="#0B2649"/>
<path d="M35.9915 42.1553C36.5935 42.6369 37.2187 43.089 37.8645 43.5101C37.4659 43.358 36.1789 42.8798 35.8945 42.661C36.0591 42.4539 36.0047 42.4905 35.9915 42.1553Z" fill="#0368DB"/>
<path d="M45.4164 29.9915C45.4251 30.4026 45.4233 30.7284 45.4045 31.1417L45.1253 31.183C45.1212 30.8926 45.2027 30.2753 45.1527 30.0614L45.001 30.013C45.1262 29.9646 45.2725 29.9874 45.4164 29.9915Z" fill="#0368DB"/>
<path d="M75.72 41.288C74.456 41.288 73.28 41.064 72.192 40.616C71.104 40.168 70.152 39.544 69.336 38.744C68.536 37.944 67.904 37.016 67.44 35.96C66.992 34.888 66.768 33.736 66.768 32.504C66.768 31.256 66.992 30.104 67.44 29.048C67.888 27.992 68.512 27.072 69.312 26.288C70.128 25.488 71.072 24.872 72.144 24.44C73.232 23.992 74.408 23.768 75.672 23.768C76.952 23.768 78.128 23.992 79.2 24.44C80.288 24.872 81.232 25.488 82.032 26.288C82.848 27.072 83.48 28 83.928 29.072C84.376 30.128 84.6 31.28 84.6 32.528C84.6 33.76 84.376 34.912 83.928 35.984C83.48 37.04 82.848 37.968 82.032 38.768C81.232 39.552 80.296 40.168 79.224 40.616C78.152 41.064 76.984 41.288 75.72 41.288ZM83.28 42.344L75.36 34.424L77.544 32.24L85.464 40.16L83.28 42.344ZM75.672 37.856C76.696 37.856 77.584 37.632 78.336 37.184C79.088 36.736 79.672 36.112 80.088 35.312C80.52 34.496 80.736 33.56 80.736 32.504C80.736 31.704 80.616 30.984 80.376 30.344C80.136 29.688 79.792 29.128 79.344 28.664C78.896 28.184 78.36 27.824 77.736 27.584C77.128 27.328 76.44 27.2 75.672 27.2C74.664 27.2 73.784 27.424 73.032 27.872C72.28 28.304 71.688 28.92 71.256 29.72C70.84 30.504 70.632 31.432 70.632 32.504C70.632 33.304 70.752 34.032 70.992 34.688C71.232 35.344 71.576 35.912 72.024 36.392C72.472 36.856 73 37.216 73.608 37.472C74.232 37.728 74.92 37.856 75.672 37.856ZM92.1441 41.264C91.0721 41.264 90.1201 41.048 89.2881 40.616C88.4721 40.168 87.8321 39.56 87.3681 38.792C86.9041 38.008 86.6721 37.112 86.6721 36.104V29.336H90.3441V36.056C90.3441 36.456 90.4081 36.8 90.5361 37.088C90.6801 37.376 90.8881 37.6 91.1601 37.76C91.4321 37.92 91.7601 38 92.1441 38C92.6881 38 93.1201 37.832 93.4401 37.496C93.7601 37.144 93.9201 36.664 93.9201 36.056V29.336H97.5921V36.08C97.5921 37.104 97.3601 38.008 96.8961 38.792C96.4321 39.56 95.7921 40.168 94.9761 40.616C94.1601 41.048 93.2161 41.264 92.1441 41.264ZM104.77 41.24C103.698 41.24 102.738 40.976 101.89 40.448C101.058 39.92 100.394 39.2 99.8976 38.288C99.4176 37.376 99.1776 36.336 99.1776 35.168C99.1776 34 99.4176 32.96 99.8976 32.048C100.394 31.136 101.058 30.416 101.89 29.888C102.738 29.36 103.698 29.096 104.77 29.096C105.554 29.096 106.258 29.248 106.882 29.552C107.522 29.856 108.042 30.28 108.442 30.824C108.842 31.352 109.066 31.96 109.114 32.648V37.688C109.066 38.376 108.842 38.992 108.442 39.536C108.058 40.064 107.546 40.48 106.906 40.784C106.266 41.088 105.554 41.24 104.77 41.24ZM105.514 37.928C106.298 37.928 106.93 37.672 107.41 37.16C107.89 36.632 108.13 35.968 108.13 35.168C108.13 34.624 108.018 34.144 107.794 33.728C107.586 33.312 107.282 32.992 106.882 32.768C106.498 32.528 106.05 32.408 105.538 32.408C105.026 32.408 104.57 32.528 104.17 32.768C103.786 32.992 103.474 33.312 103.234 33.728C103.01 34.144 102.898 34.624 102.898 35.168C102.898 35.696 103.01 36.168 103.234 36.584C103.458 37 103.77 37.328 104.17 37.568C104.57 37.808 105.018 37.928 105.514 37.928ZM107.986 41V37.856L108.538 35.024L107.986 32.192V29.336H111.586V41H107.986ZM114.171 41V23.576H117.843V41H114.171ZM120.429 41V29.336H124.101V41H120.429ZM122.277 27.728C121.701 27.728 121.221 27.536 120.837 27.152C120.469 26.752 120.285 26.272 120.285 25.712C120.285 25.136 120.469 24.656 120.837 24.272C121.221 23.888 121.701 23.696 122.277 23.696C122.853 23.696 123.325 23.888 123.693 24.272C124.061 24.656 124.245 25.136 124.245 25.712C124.245 26.272 124.061 26.752 123.693 27.152C123.325 27.536 122.853 27.728 122.277 27.728ZM128.343 41V24.512H132.015V41H128.343ZM125.703 32.456V29.336H134.655V32.456H125.703ZM139.873 41.048L135.073 29.336H139.033L142.081 38.624H140.617L143.737 29.336H147.697L142.705 41.048H139.873ZM136.873 45.92L140.377 38.36L142.705 41.048L140.641 45.92H136.873Z" fill="white"/>
<path d="M149.632 41V24.056H153.4V41H149.632ZM160.12 41V24.056H163.912V41H160.12ZM151.888 33.92V30.656H161.368V33.92H151.888ZM172.587 41.264C171.323 41.264 170.195 41.008 169.203 40.496C168.227 39.968 167.459 39.24 166.899 38.312C166.339 37.384 166.059 36.336 166.059 35.168C166.059 34 166.331 32.96 166.875 32.048C167.435 31.12 168.187 30.392 169.131 29.864C170.075 29.336 171.139 29.072 172.323 29.072C173.475 29.072 174.491 29.32 175.371 29.816C176.251 30.312 176.939 31 177.435 31.88C177.947 32.76 178.203 33.768 178.203 34.904C178.203 35.112 178.187 35.336 178.155 35.576C178.139 35.8 178.099 36.064 178.035 36.368L167.979 36.392V33.872L176.475 33.848L174.891 34.904C174.875 34.232 174.771 33.68 174.579 33.248C174.387 32.8 174.099 32.464 173.715 32.24C173.347 32 172.891 31.88 172.347 31.88C171.771 31.88 171.267 32.016 170.835 32.288C170.419 32.544 170.091 32.912 169.851 33.392C169.627 33.872 169.515 34.456 169.515 35.144C169.515 35.832 169.635 36.424 169.875 36.92C170.131 37.4 170.483 37.776 170.931 38.048C171.395 38.304 171.939 38.432 172.563 38.432C173.139 38.432 173.659 38.336 174.123 38.144C174.587 37.936 174.995 37.632 175.347 37.232L177.363 39.248C176.787 39.92 176.091 40.424 175.275 40.76C174.459 41.096 173.563 41.264 172.587 41.264ZM179.976 41V29.336H183.648V41H179.976ZM183.648 34.592L182.112 33.392C182.416 32.032 182.928 30.976 183.648 30.224C184.368 29.472 185.368 29.096 186.648 29.096C187.208 29.096 187.696 29.184 188.112 29.36C188.544 29.52 188.92 29.776 189.24 30.128L187.056 32.888C186.896 32.712 186.696 32.576 186.456 32.48C186.216 32.384 185.944 32.336 185.64 32.336C185.032 32.336 184.544 32.528 184.176 32.912C183.824 33.28 183.648 33.84 183.648 34.592ZM195.506 41.264C194.306 41.264 193.218 41 192.242 40.472C191.282 39.928 190.522 39.192 189.962 38.264C189.402 37.336 189.122 36.296 189.122 35.144C189.122 33.992 189.402 32.96 189.962 32.048C190.522 31.136 191.282 30.416 192.242 29.888C193.202 29.344 194.29 29.072 195.506 29.072C196.722 29.072 197.81 29.336 198.77 29.864C199.73 30.392 200.49 31.12 201.05 32.048C201.61 32.96 201.89 33.992 201.89 35.144C201.89 36.296 201.61 37.336 201.05 38.264C200.49 39.192 199.73 39.928 198.77 40.472C197.81 41 196.722 41.264 195.506 41.264ZM195.506 37.928C196.034 37.928 196.498 37.816 196.898 37.592C197.298 37.352 197.602 37.024 197.81 36.608C198.034 36.176 198.146 35.688 198.146 35.144C198.146 34.6 198.034 34.128 197.81 33.728C197.586 33.312 197.274 32.992 196.874 32.768C196.49 32.528 196.034 32.408 195.506 32.408C194.994 32.408 194.538 32.528 194.138 32.768C193.738 32.992 193.426 33.312 193.202 33.728C192.978 34.144 192.866 34.624 192.866 35.168C192.866 35.696 192.978 36.176 193.202 36.608C193.426 37.024 193.738 37.352 194.138 37.592C194.538 37.816 194.994 37.928 195.506 37.928Z" fill="#1A6EFF"/>
</svg>
